<?xml version="1.0" standalone="no"?>
<!DOCTYPE svg PUBLIC "-//W3C//DTD SVG 20010904//EN"
 "http://www.w3.org/TR/2001/REC-SVG-20010904/DTD/svg10.dtd">
<svg version="1.0" xmlns="http://www.w3.org/2000/svg"
 width="750.000000pt" height="200.000000pt" viewBox="0 0 750.000000 200.000000"
 preserveAspectRatio="xMidYMid meet">

<g transform="translate(0.000000,200.000000) scale(0.100000,-0.100000)"
fill="#000000" stroke="none">
<path d="M3050 1271 l25 -7 3 -292 2 -292 -32 0 c-22 0 -29 -3 -22 -10 7 -7
97 -9 250 -8 l239 3 3 93 c2 50 0 92 -5 92 -4 -1 -21 -24 -38 -53 -40 -69 -95
-106 -168 -114 l-57 -6 0 148 0 148 37 -6 c43 -7 74 -35 89 -79 21 -62 29 -38
29 87 0 69 -2 125 -5 125 -3 0 -15 -20 -28 -44 -24 -45 -55 -66 -97 -66 l-25
0 0 141 0 141 53 -7 c85 -12 116 -34 157 -112 25 -49 43 -56 36 -15 -2 15 -5
53 -5 85 l-1 57 -232 -1 c-128 -1 -222 -4 -208 -8z"/>
<path d="M4905 1271 l30 -6 0 -290 0 -290 -28 -3 c-15 -2 -25 -8 -22 -13 8
-13 335 -12 335 1 0 6 -25 10 -55 10 l-55 0 0 135 0 135 40 0 c48 0 87 -32 96
-80 15 -70 24 -33 24 92 l-1 133 -24 -47 c-29 -54 -49 -68 -99 -68 l-36 0 0
146 0 146 53 -7 c88 -12 121 -37 157 -118 12 -26 24 -46 28 -43 4 2 6 43 4 90
l-3 86 -237 -1 c-130 -1 -223 -4 -207 -8z"/>
<path d="M5420 1216 c0 -35 -3 -84 -6 -110 -10 -68 10 -58 37 20 29 81 73 134
114 137 l30 2 3 -292 2 -293 -40 0 c-22 0 -40 -4 -40 -10 0 -6 60 -10 159 -10
96 0 162 4 166 10 4 6 -10 10 -34 10 l-41 0 0 295 c0 196 3 295 10 295 26 0
78 -30 94 -54 10 -15 28 -55 41 -89 12 -34 26 -61 29 -59 3 1 6 4 6 7 0 3 0
50 0 105 l0 100 -265 0 -265 0 0 -64z"/>
<path d="M6018 1273 l32 -4 0 -295 0 -294 -30 0 c-16 0 -30 -4 -30 -10 0 -6
63 -10 170 -10 107 0 170 4 170 10 0 6 -25 10 -55 10 l-55 0 0 119 0 118 73 6
c90 6 148 29 186 72 51 58 53 168 4 225 -41 49 -100 60 -312 58 -102 0 -171
-3 -153 -5z m283 -22 c19 -15 24 -32 29 -87 8 -93 -4 -182 -27 -205 -10 -10
-31 -19 -48 -21 l-30 -3 -3 168 -2 167 29 0 c16 0 39 -8 52 -19z"/>
<path d="M3685 1084 c-59 -15 -95 -52 -95 -95 0 -35 39 -79 70 -79 24 0 61 18
72 34 14 20 9 74 -8 80 -9 3 -14 15 -12 28 2 18 11 24 35 26 30 3 33 0 43 -38
6 -22 10 -69 8 -103 l-3 -62 -40 -3 c-135 -9 -185 -40 -185 -112 0 -49 30 -87
82 -101 54 -14 103 -4 127 27 l19 25 25 -25 c46 -46 153 -44 188 5 22 29 38
106 20 95 -6 -4 -11 -17 -11 -30 0 -12 -7 -31 -15 -42 -15 -19 -15 -19 -30 0
-12 15 -15 50 -15 155 0 192 -15 212 -165 224 -35 3 -81 -1 -110 -9z m113
-294 c-2 -47 -9 -75 -20 -86 -26 -26 -38 -7 -38 58 0 63 17 98 48 98 11 0 13
-14 10 -70z"/>
<path d="M4185 1091 c-86 -15 -125 -62 -125 -150 0 -48 4 -57 34 -86 20 -19
57 -38 92 -49 82 -23 128 -48 132 -69 8 -43 -62 -77 -127 -62 -43 9 -90 51
-112 99 l-18 41 0 -78 c-1 -76 -1 -78 19 -64 17 12 27 11 77 -5 68 -23 125
-18 175 15 44 30 58 61 58 130 0 79 -26 106 -141 142 -116 36 -141 62 -99 100
12 11 37 18 64 19 52 1 89 -22 126 -79 l25 -38 3 63 c2 34 1 64 -2 67 -2 2
-13 -1 -23 -7 -15 -10 -29 -9 -66 4 -26 9 -49 15 -50 15 -1 -1 -20 -5 -42 -8z"/>
<path d="M4410 1080 c0 -5 8 -10 18 -10 13 0 34 -46 92 -203 l75 -202 38 -3
c44 -4 44 -6 -5 -110 -30 -64 -64 -96 -95 -90 -26 5 -29 44 -4 51 27 7 27 41
1 67 -30 30 -83 27 -109 -6 -25 -31 -26 -46 -7 -83 28 -52 112 -68 172 -30 45
27 73 90 170 376 72 214 81 233 102 233 13 0 20 4 17 10 -3 6 -31 10 -61 10
-30 0 -54 -4 -54 -10 0 -5 13 -10 29 -10 l28 0 -51 -144 c-28 -80 -52 -143
-55 -141 -4 5 -91 267 -91 278 0 4 9 7 20 7 11 0 20 5 20 10 0 6 -48 10 -125
10 -77 0 -125 -4 -125 -10z"/>
</g>
</svg>
