<?xml version="1.0" standalone="no"?>
<!DOCTYPE svg PUBLIC "-//W3C//DTD SVG 20010904//EN"
 "http://www.w3.org/TR/2001/REC-SVG-20010904/DTD/svg10.dtd">
<svg version="1.0" xmlns="http://www.w3.org/2000/svg"
 width="750.000000pt" height="200.000000pt" viewBox="0 0 750.000000 200.000000"
 preserveAspectRatio="xMidYMid meet">

<g transform="translate(0.000000,200.000000) scale(0.100000,-0.100000)"
fill="#000000" stroke="none">
<path d="M1430 1380 l0 -319 -79 -3 -79 -3 170 -215 c94 -118 174 -215 178
-215 5 0 85 97 178 215 l171 215 -80 3 -79 3 0 319 0 320 -190 0 -190 0 0
-320z"/>
<path d="M2773 1273 l27 -4 -2 -292 -3 -292 -22 -3 c-13 -2 -23 -8 -23 -13 0
-5 99 -9 240 -9 l240 0 0 28 c0 15 3 57 7 95 7 78 -5 87 -32 26 -34 -75 -118
-129 -202 -129 l-33 0 0 146 0 147 36 -6 c45 -8 71 -30 95 -82 l18 -40 0 130
0 130 -23 -44 c-25 -48 -56 -70 -98 -71 l-28 0 0 141 0 142 50 -6 c82 -10 115
-34 177 -133 10 -16 12 -4 12 64 l1 82 -232 -1 c-128 -1 -221 -4 -205 -6z"/>
<path d="M4630 1271 l25 -7 0 -289 0 -290 -28 -3 c-15 -2 -25 -8 -22 -13 8
-12 322 -12 330 1 4 6 -15 10 -49 10 l-56 0 0 135 c0 152 1 154 66 133 31 -10
44 -22 61 -57 12 -24 25 -46 28 -49 3 -3 5 53 5 124 l-1 129 -19 -40 c-27 -55
-55 -75 -101 -75 l-39 0 0 146 0 147 52 -7 c85 -12 116 -34 159 -116 l24 -45
3 74 c2 41 1 80 -2 88 -4 10 -51 13 -233 12 -125 -1 -217 -4 -203 -8z"/>
<path d="M5140 1206 c0 -40 -3 -88 -6 -105 -8 -36 11 -43 21 -8 4 12 20 50 36
83 22 48 37 66 65 79 66 31 65 38 62 -282 l-3 -288 -38 -3 c-20 -2 -35 -7 -32
-13 8 -13 315 -12 315 1 0 6 -16 10 -35 10 l-35 0 0 296 0 297 33 -7 c43 -8
81 -52 108 -126 12 -33 26 -63 30 -66 10 -6 12 149 3 184 l-6 22 -259 0 -259
0 0 -74z"/>
<path d="M5738 1273 l32 -4 0 -295 0 -294 -25 0 c-14 0 -25 -4 -25 -10 0 -6
62 -10 165 -10 103 0 165 4 165 10 0 6 -25 10 -55 10 l-55 0 0 119 0 118 75 6
c154 13 219 69 218 188 -1 72 -23 113 -76 141 -39 22 -55 23 -247 24 -113 1
-190 0 -172 -3z m286 -26 c29 -29 41 -125 26 -212 -11 -67 -33 -95 -76 -98
l-29 -2 -3 168 -2 167 30 0 c19 0 40 -9 54 -23z"/>
<path d="M3384 1080 c-41 -13 -64 -40 -71 -83 -4 -29 -1 -40 20 -61 31 -31 65
-33 101 -5 30 24 37 83 10 93 -9 3 -14 15 -12 28 2 19 9 23 37 23 31 0 36 -4
43 -33 5 -18 8 -63 6 -100 l-3 -67 -40 -3 c-136 -9 -185 -39 -185 -114 0 -30
7 -46 29 -69 26 -25 37 -29 88 -29 37 0 67 6 79 15 17 13 18 14 1 15 -57 1
-38 170 20 170 12 0 14 -13 11 -72 -3 -70 -2 -74 26 -100 25 -24 38 -28 88
-28 33 0 67 4 77 10 20 10 47 67 37 77 -3 3 -6 -1 -6 -9 0 -25 -27 -43 -44
-29 -11 9 -15 47 -18 161 l-3 150 -32 32 c-32 32 -35 32 -130 35 -54 1 -112
-2 -129 -7z"/>
<path d="M3843 1070 c-42 -25 -63 -68 -63 -127 0 -78 36 -111 165 -148 33 -9
68 -24 78 -32 50 -46 -22 -105 -108 -89 -43 8 -90 47 -115 95 l-19 36 -1 -74
c0 -71 1 -73 18 -57 17 15 22 15 55 1 20 -8 65 -15 99 -15 104 0 158 49 158
144 0 87 -35 122 -156 156 -95 27 -124 58 -89 94 46 46 155 18 191 -49 10 -19
22 -35 26 -35 5 0 8 27 8 60 0 60 -6 70 -28 48 -9 -9 -21 -9 -50 0 -60 18
-132 15 -169 -8z"/>
<path d="M4135 1080 c-3 -5 2 -10 12 -10 14 0 34 -42 93 -203 l75 -202 38 -3
c44 -4 44 -6 -3 -109 -29 -63 -65 -97 -97 -91 -22 4 -31 48 -10 48 14 0 27 20
27 41 0 21 -42 49 -73 49 -82 0 -98 -108 -22 -144 41 -20 78 -20 115 -1 61 31
73 59 226 502 30 86 43 113 57 113 9 0 17 5 17 10 0 6 -22 10 -49 10 -28 0
-53 -4 -56 -10 -4 -6 5 -10 19 -10 14 0 26 -3 26 -7 0 -14 -80 -247 -90 -263
-5 -8 -11 -12 -13 -10 -5 5 -87 264 -87 274 0 3 9 6 21 6 11 0 17 5 14 10 -4
6 -55 10 -120 10 -65 0 -116 -4 -120 -10z"/>
<path d="M880 485 l0 -185 740 0 740 0 0 185 0 185 -90 0 -90 0 0 -90 0 -90
-560 0 -560 0 0 90 0 90 -90 0 -90 0 0 -185z"/>
</g>
</svg>
